HIERARCHY
ROOT Hips
{
	OFFSET 0.000000 8.830580 0.000000
	CHANNELS 6 Xposition Yposition Zposition Zrotation Yrotation Xrotation 
	JOINT Spine
	{
		OFFSET 0.000000 0.010000 0.000000
		CHANNELS 3 Zrotation Yrotation Xrotation
		JOINT Spine1
		{
			OFFSET 0.000000 2.459130 0.000000
			CHANNELS 3 Zrotation Yrotation Xrotation
			JOINT Neck
			{
				OFFSET 0.000000 2.484630 0.000000
				CHANNELS 3 Zrotation Yrotation Xrotation
				JOINT Head_virtual
				{
					OFFSET 0.000000 0.000000 0.000000
					CHANNELS 3 Zrotation Yrotation Xrotation
					JOINT Head
					{
						OFFSET 0.000000 0.927525 0.000000
						CHANNELS 3 Zrotation Yrotation Xrotation
						End Site
						{
							OFFSET 0.000000 0.000000 0.000000
						}
					}
				}
				JOINT LeftUpArm_virtual
				{
					OFFSET 0.000000 0.000000 0.000000
					CHANNELS 3 Zrotation Yrotation Xrotation
					JOINT LeftUpArm
					{
						OFFSET 1.248820 0.000000 0.000000
						CHANNELS 3 Zrotation Yrotation Xrotation
						JOINT LeftForeArm
						{
							OFFSET 2.597580 0.000000 0.000000
							CHANNELS 3 Zrotation Yrotation Xrotation
							JOINT LeftHand
							{
								OFFSET 2.455420 0.000000 0.000000
								CHANNELS 3 Zrotation Yrotation Xrotation
								End Site
								{
									OFFSET 0.000000 0.000000 0.000000
								}
							}
						}
					}
				}
				JOINT RightUpArm_virtual
				{
					OFFSET -0.000000 -0.000000 -0.000000
					CHANNELS 3 Zrotation Yrotation Xrotation
					JOINT RightUpArm
					{
						OFFSET -1.248820 -0.000000 -0.000000
						CHANNELS 3 Zrotation Yrotation Xrotation
						JOINT RightForeArm
						{
							OFFSET -2.597580 -0.000000 -0.000000
							CHANNELS 3 Zrotation Yrotation Xrotation
							JOINT RightHand
							{
								OFFSET -2.455420 -0.000000 -0.000000
								CHANNELS 3 Zrotation Yrotation Xrotation
								End Site
								{
									OFFSET 0.000000 0.000000 0.000000
								}
							}
						}
					}
				}
			}
		}
	}
	JOINT LeftUpLeg
	{
		OFFSET 1.271939 0.000000 0.000000
		CHANNELS 3 Zrotation Yrotation Xrotation
		JOINT LeftLowLeg
		{
			OFFSET 0.000000 -4.342910 0.000000
			CHANNELS 3 Zrotation Yrotation Xrotation
			JOINT LeftFoot
			{
				OFFSET 0.000000 -4.487670 0.000000
				CHANNELS 3 Zrotation Yrotation Xrotation
				JOINT LeftToeBase
				{
					OFFSET 0.000000 0.000000 1.515070
					CHANNELS 3 Zrotation Yrotation Xrotation
					End Site
					{
						OFFSET 0.000000 0.000000 0.000000
					}
				}
			}
		}
	}
	JOINT RightUpLeg
	{
		OFFSET -1.271939 0.000000 0.000000
		CHANNELS 3 Zrotation Yrotation Xrotation
		JOINT RightLowLeg
		{
			OFFSET 0.000000 -4.342910 0.000000
			CHANNELS 3 Zrotation Yrotation Xrotation
			JOINT RightFoot
			{
				OFFSET 0.000000 -4.487670 0.000000
				CHANNELS 3 Zrotation Yrotation Xrotation
				JOINT RightToeBase
				{
					OFFSET 0.000000 0.000000 1.515070
					CHANNELS 3 Zrotation Yrotation Xrotation
					End Site
					{
						OFFSET 0.000000 0.000000 0.000000
					}
				}
			}
		}
	}
}
MOTION
Frames: 17
Frame Time: 0.041667
-17.330080 9.154096 42.495024 -174.847591 2.340233 -171.038240 3.409236 -1.345431 -7.688023 1.859783 -1.185019 -12.377389 0.000000 0.000000 0.000000 -0.479162 -10.393444 36.189898 17.846807 3.050969 -84.836396 -24.089001 11.955600 -9.074140 10.086700 -7.960910 -26.319300 0.000000 -11.881500 0.000000 25.569300 9.713420 16.463200 20.418800 -5.835350 -3.552040 -11.735900 1.319520 -45.750198 0.000000 14.165300 0.000000 -21.125601 -5.719840 46.649799 2.750320 3.497155 -7.223062 0.000000 0.000000 6.641260 -14.362837 8.974355 0.181826 0.000000 0.000000 -28.388400 6.968444 3.849016 -6.409157 0.000000 0.000000 7.933770 9.495762 -19.705694 5.629801 0.000000 0.000000 -29.970500 
-17.329292 9.153838 42.499971 -174.853957 2.488490 -171.152366 3.435544 -1.196251 -7.632083 1.765005 -1.039883 -12.250949 0.000000 0.000000 0.000000 -0.922409 -8.670685 36.289705 17.255216 3.022970 -84.739047 -23.924500 11.853100 -9.088020 9.701870 -8.309320 -26.555099 0.000000 -12.424700 0.000000 25.809299 9.896410 16.006599 20.404301 -5.601740 -3.179680 -11.179200 1.253610 -46.609501 0.000000 14.109500 0.000000 -20.933201 -5.503340 45.620098 2.731562 3.675895 -7.093619 0.000000 0.000000 6.601270 -14.355944 8.940740 0.210761 0.000000 0.000000 -28.404000 6.952710 3.955041 -6.337304 0.000000 0.000000 7.951100 9.488656 -19.683895 5.638712 0.000000 0.000000 -30.007100 
-17.330993 9.153317 42.515379 -174.861267 2.333636 -171.224188 3.522462 -1.147728 -7.417116 1.678730 -1.003643 -12.356826 0.000000 0.000000 0.000000 -1.402597 -6.974468 36.319033 16.930351 2.865813 -84.624981 -23.772900 11.553500 -8.920570 9.254710 -8.497070 -26.952101 0.000000 -13.128000 0.000000 25.907700 9.952840 15.689600 20.295900 -5.417440 -2.757600 -10.522600 1.295670 -46.989601 0.000000 14.248700 0.000000 -21.182699 -5.788130 44.262699 2.741484 3.435075 -7.247040 0.000000 0.000000 6.791300 -14.339953 9.033566 0.180539 0.000000 0.000000 -28.397700 6.962804 3.752723 -6.394708 0.000000 0.000000 8.009350 9.489299 -19.642447 5.645218 0.000000 0.000000 -30.065400 
-17.329988 9.152330 42.523250 -174.848188 2.376911 -171.288531 3.506727 -1.039105 -7.315329 1.736253 -0.892075 -12.374024 0.000000 0.000000 0.000000 -1.788993 -5.615566 36.255127 16.531154 2.746936 -84.529796 -23.638399 11.321000 -8.586630 8.771370 -8.702800 -27.425600 0.000000 -13.939300 0.000000 26.057699 9.918590 15.169600 20.276300 -5.106090 -2.295580 -10.034700 1.308930 -47.143299 0.000000 14.334700 0.000000 -21.304701 -5.645680 43.627499 2.750621 3.572312 -7.230214 0.000000 0.000000 6.798450 -14.360492 8.932861 0.191321 0.000000 0.000000 -28.503500 6.977561 3.805856 -6.372852 0.000000 0.000000 7.999570 9.485688 -19.650310 5.645453 0.000000 0.000000 -30.109200 
-17.329736 9.151568 42.532959 -174.838675 2.434419 -171.323280 3.485540 -0.908485 -7.251327 1.802955 -0.758105 -12.359599 0.000000 0.000000 0.000000 -2.124697 -4.445927 36.149242 16.202866 2.640287 -84.460026 -23.519800 11.000700 -8.284750 8.271390 -8.880980 -27.367100 0.000000 -14.815100 0.000000 26.178499 9.740170 14.408300 20.191999 -4.897330 -2.028900 -9.412780 1.464210 -46.816200 0.000000 14.646100 0.000000 -21.200500 -5.592020 42.921799 2.751595 3.637298 -7.252057 0.000000 0.000000 6.806470 -14.353979 8.937483 0.186160 0.000000 0.000000 -28.484200 6.977375 3.864685 -6.400415 0.000000 0.000000 8.005290 9.489375 -19.635558 5.658392 0.000000 0.000000 -30.116900 
-17.329744 9.150632 42.544528 -174.817001 2.393722 -171.373330 3.410182 -0.829626 -7.068765 2.029749 -0.666799 -12.518562 0.000000 0.000000 0.000000 -2.480995 -3.387595 36.030497 15.988888 2.445517 -84.406365 -23.426201 10.620800 -7.900470 7.750960 -8.986240 -26.923901 0.000000 -15.734700 0.000000 26.151800 9.511690 13.743000 19.989700 -4.737440 -1.594920 -8.683360 1.746770 -46.765999 0.000000 15.061100 0.000000 -21.003201 -5.371150 41.922699 2.779715 3.606787 -7.294848 0.000000 0.000000 6.836370 -14.360393 8.924398 0.177955 0.000000 0.000000 -28.530800 7.001851 3.844457 -6.419386 0.000000 0.000000 7.991380 9.481553 -19.649492 5.696782 0.000000 0.000000 -30.296700 
-17.329585 9.149905 42.553814 -174.801332 2.376304 -171.419543 3.331679 -0.742333 -7.017812 2.224261 -0.569964 -12.492828 0.000000 0.000000 0.000000 -2.769419 -2.497829 35.861624 15.806001 2.318111 -84.409332 -23.381001 10.231000 -7.475220 7.323910 -9.155760 -26.344000 0.000000 -16.718901 0.000000 26.037100 9.354940 12.982100 19.894400 -4.580000 -0.970962 -8.088910 2.101400 -46.927601 0.000000 15.461500 0.000000 -20.426600 -5.160830 40.444000 2.803219 3.581341 -7.288801 0.000000 0.000000 6.796630 -14.353017 8.932589 0.195673 0.000000 0.000000 -28.562800 7.027822 3.668335 -6.433747 0.000000 0.000000 8.006670 9.470354 -19.487940 5.718078 0.000000 0.000000 -30.257500 
-17.329688 9.148960 42.562481 -174.802931 2.371044 -171.437784 3.245393 -0.661057 -7.004888 2.407867 -0.477628 -12.468040 0.000000 0.000000 0.000000 -3.033481 -1.727166 35.660952 15.685203 2.179977 -84.417279 -23.294600 9.866550 -7.045800 6.886690 -9.392880 -25.548201 0.000000 -17.727900 0.000000 25.865101 9.151980 12.077700 19.779499 -4.329560 -0.253930 -7.465420 2.411470 -46.854099 0.000000 15.965700 0.000000 -19.869499 -5.137360 38.790901 2.810317 3.484806 -7.274153 0.000000 0.000000 6.697190 -14.358983 9.017558 0.213843 0.000000 0.000000 -28.600000 7.019370 3.753910 -6.456271 0.000000 0.000000 7.988710 9.507585 -19.544553 5.691803 0.000000 0.000000 -30.258100 
-17.327625 9.148559 42.570167 -174.821896 2.424706 -171.651081 3.055683 -0.563406 -6.835312 2.692032 -0.354338 -12.397841 0.000000 0.000000 0.000000 -3.272407 -1.083053 35.457628 15.670506 2.032781 -84.451879 -23.269800 9.467430 -6.470990 6.508210 -9.693030 -25.043699 0.000000 -18.698200 0.000000 25.644800 8.706400 11.435100 19.645000 -4.019710 0.511864 -6.871800 2.732440 -46.702000 0.000000 16.460501 0.000000 -19.272200 -4.978120 37.227001 2.796769 3.745154 -7.087634 0.000000 0.000000 6.666770 -14.357864 8.805788 0.303983 0.000000 0.000000 -28.664600 7.016775 3.827148 -6.288981 0.000000 0.000000 7.986800 9.489293 -19.580829 5.684964 0.000000 0.000000 -30.291000 
-17.329026 9.147015 42.582865 -174.800942 2.175315 -171.472954 3.044808 -0.581689 -6.952100 2.835383 -0.373137 -12.438768 0.000000 0.000000 0.000000 -3.457015 -0.553759 35.163049 15.693420 1.900818 -84.421270 -23.176399 9.052700 -5.898230 6.096840 -9.997220 -24.390800 0.000000 -19.834101 0.000000 25.468700 8.450750 10.503600 19.502199 -3.655860 1.213580 -6.209120 3.112360 -46.787899 0.000000 17.011101 0.000000 -18.531900 -4.593340 35.869900 2.827693 3.502025 -7.446945 0.000000 0.000000 6.774790 -14.340053 8.823092 0.271513 0.000000 0.000000 -28.700900 7.041851 3.695225 -6.533092 0.000000 0.000000 7.972960 9.528518 -19.622372 5.659530 0.000000 0.000000 -30.355700 
-17.328503 9.146256 42.591508 -174.789823 2.137718 -171.532751 2.927953 -0.547186 -6.950279 3.086187 -0.326431 -12.359304 0.000000 0.000000 0.000000 -3.627808 -0.152829 34.949041 15.679251 1.773564 -84.451413 -23.157101 8.707950 -5.456020 5.700670 -10.434300 -23.674500 0.000000 -21.000799 0.000000 25.418699 8.237850 9.639930 19.413900 -3.419210 2.130250 -5.712880 3.732520 -46.420700 0.000000 17.578501 0.000000 -17.909201 -4.273770 34.023399 2.843290 3.556536 -7.445551 0.000000 0.000000 6.769300 -14.334994 8.735543 0.298968 0.000000 0.000000 -28.726100 7.062392 3.672961 -6.532837 0.000000 0.000000 7.985700 9.511401 -19.631830 5.662881 0.000000 0.000000 -30.390800 
-17.327913 9.145872 42.599159 -174.794862 2.118913 -171.699612 2.806007 -0.491679 -6.926196 3.301718 -0.262249 -12.126629 0.000000 0.000000 0.000000 -3.781008 0.239737 34.697649 15.794851 1.680937 -84.547475 -23.147400 8.317190 -5.077750 5.293950 -10.904600 -22.820400 0.000000 -22.287001 0.000000 25.478100 7.987740 8.853230 19.403400 -3.127970 2.860190 -5.249140 4.318160 -45.685600 0.000000 18.270500 0.000000 -17.726400 -4.001300 32.196701 2.847683 3.579842 -7.328628 0.000000 0.000000 6.759820 -14.335521 8.704834 0.334858 0.000000 0.000000 -28.801800 7.068179 3.705938 -6.418799 0.000000 0.000000 7.993630 9.535234 -19.684376 5.655126 0.000000 0.000000 -30.455800 
-17.328461 9.145324 42.610113 -174.788381 1.975160 -171.743549 2.726900 -0.507310 -6.931123 3.501990 -0.273091 -12.018639 0.000000 0.000000 0.000000 -3.899652 0.530705 34.434704 15.924681 1.578018 -84.573842 -23.187300 7.944080 -4.435990 5.011170 -11.343100 -22.115999 0.000000 -23.718500 0.000000 25.521000 7.680550 8.255070 19.376400 -2.888910 3.771350 -4.796420 5.027990 -44.975601 0.000000 19.021999 0.000000 -17.487900 -3.540020 30.269699 2.866573 3.466170 -7.436661 0.000000 0.000000 6.864220 -14.321706 8.690198 0.340812 0.000000 0.000000 -28.838200 7.086728 3.619455 -6.459790 0.000000 0.000000 8.030650 9.548124 -19.715959 5.642397 0.000000 0.000000 -30.451500 
-17.328399 9.145067 42.619924 -174.801386 1.902493 -171.984495 2.568728 -0.484342 -6.807464 3.777955 -0.237288 -11.807603 0.000000 0.000000 0.000000 -4.025319 0.755943 34.215597 16.081428 1.454250 -84.651527 -23.299900 7.529020 -3.825770 4.755710 -11.763000 -21.130800 0.000000 -25.301201 0.000000 25.631399 7.309350 7.539710 19.400299 -2.619120 4.769430 -4.364540 5.644250 -44.230900 0.000000 20.014799 0.000000 -17.287701 -3.070380 28.157200 2.870952 3.454458 -7.306679 0.000000 0.000000 6.923650 -14.310271 8.631275 0.387994 0.000000 0.000000 -28.874600 7.093871 3.586002 -6.306878 0.000000 0.000000 8.079520 9.573484 -19.760381 5.626898 0.000000 0.000000 -30.528000 
-17.329367 9.144311 42.631404 -174.794838 1.702726 -172.083537 2.511565 -0.486464 -6.747585 3.913139 -0.237004 -11.708702 0.000000 0.000000 0.000000 -4.080361 0.877627 34.001663 16.264545 1.383488 -84.674571 -23.390900 7.144300 -3.326190 4.453600 -12.295500 -19.893600 0.000000 -26.989599 0.000000 25.915800 6.850880 6.908450 19.420700 -2.408160 5.422910 -3.752880 6.324590 -42.915600 0.000000 21.080200 0.000000 -17.509300 -2.447510 26.006599 2.893531 3.335316 -7.383606 0.000000 0.000000 7.045840 -14.296272 8.563231 0.403801 0.000000 0.000000 -28.894700 7.120543 3.410596 -6.304832 0.000000 0.000000 8.132560 9.603727 -19.755660 5.608987 0.000000 0.000000 -30.555500 
-17.329076 9.143517 42.641333 -174.792306 1.571199 -172.269151 2.384622 -0.457648 -6.682814 4.134958 -0.201420 -11.483172 0.000000 0.000000 0.000000 -4.156837 0.978621 33.809753 16.443029 1.284245 -84.736891 -23.503401 6.834280 -3.043090 3.899820 -12.985700 -18.645201 0.000000 -28.758101 0.000000 26.275200 6.291060 6.158580 19.621099 -1.906460 5.697070 -3.205130 6.552470 -40.807499 0.000000 22.454300 0.000000 -17.812000 -2.034080 23.240101 2.916671 3.273603 -7.331819 0.000000 0.000000 7.131680 -14.286543 8.495086 0.419401 0.000000 0.000000 -28.945000 7.148864 3.296647 -6.214394 0.000000 0.000000 8.198620 9.629915 -19.773114 5.576451 0.000000 0.000000 -30.574500 
-17.329436 9.143355 42.652225 -174.795575 1.411583 -172.499785 2.297491 -0.444227 -6.597809 4.302960 -0.189709 -11.213763 0.000000 0.000000 0.000000 -4.252857 1.094351 33.729522 16.682590 1.188562 -84.875471 -23.674400 6.500880 -2.855940 3.144300 -13.643800 -17.192801 0.000000 -30.695700 0.000000 27.144300 6.045400 4.990680 19.812201 -1.580700 6.529350 -2.554070 6.995550 -38.918701 0.000000 23.942200 0.000000 -18.697700 -1.635270 19.954201 2.937920 3.191059 -7.248109 0.000000 0.000000 7.220450 -14.270144 8.417497 0.473097 0.000000 0.000000 -29.009800 7.171145 3.138036 -6.091629 0.000000 0.000000 8.273630 9.651441 -19.773877 5.564740 0.000000 0.000000 -30.615100 
